<mxfile host="app.diagrams.net" modified="2022-12-27T11:11:06.316Z" agent="5.0 (Windows NT 10.0; Win64; x64) AppleWebKit/537.36 (KHTML, like Gecko) Chrome/108.0.0.0 Safari/537.36" etag="MSCTTgHiRjy0VHwFRoST" version="20.6.2" type="github">
  <diagram id="3228e29e-7158-1315-38df-8450db1d8a1d" name="Page-1">
    <mxGraphModel dx="1056" dy="566" grid="1" gridSize="10" guides="1" tooltips="1" connect="1" arrows="1" fold="1" page="1" pageScale="1" pageWidth="1169" pageHeight="827" background="none" math="0" shadow="0">
      <root>
        <mxCell id="0" />
        <mxCell id="1" parent="0" />
        <mxCell id="LAsCTLy9SrQvGjmSoTxD-21592" value="&lt;b&gt;&lt;font style=&quot;font-size: 14px;&quot;&gt;PCDS&lt;/font&gt;&lt;/b&gt;" style="rounded=0;whiteSpace=wrap;html=1;dashed=1;fillColor=none;labelPosition=left;verticalLabelPosition=bottom;align=right;verticalAlign=top;horizontal=1;textDirection=ltr;" parent="1" vertex="1">
          <mxGeometry x="61" y="259" width="560" height="260" as="geometry" />
        </mxCell>
        <mxCell id="LAsCTLy9SrQvGjmSoTxD-21566" value="Charge regulator" style="rounded=0;whiteSpace=wrap;html=1;" parent="1" vertex="1">
          <mxGeometry x="230" y="364" width="120" height="60" as="geometry" />
        </mxCell>
        <mxCell id="LAsCTLy9SrQvGjmSoTxD-21579" style="edgeStyle=orthogonalEdgeStyle;rounded=0;orthogonalLoop=1;jettySize=auto;html=1;exitX=0.75;exitY=1;exitDx=0;exitDy=0;entryX=0;entryY=0.75;entryDx=0;entryDy=0;exitPerimeter=0;" parent="1" source="LAsCTLy9SrQvGjmSoTxD-21571" target="LAsCTLy9SrQvGjmSoTxD-21566" edge="1">
          <mxGeometry relative="1" as="geometry">
            <mxPoint x="190" y="426" as="targetPoint" />
          </mxGeometry>
        </mxCell>
        <mxCell id="BPcT3s-d_LDSYnCtPken-14" style="edgeStyle=orthogonalEdgeStyle;rounded=0;orthogonalLoop=1;jettySize=auto;html=1;exitX=0.71;exitY=0.11;exitDx=0;exitDy=0;exitPerimeter=0;entryX=1;entryY=0.5;entryDx=0;entryDy=0;entryPerimeter=0;startArrow=classic;startFill=1;endArrow=none;endFill=0;" edge="1" parent="1" source="LAsCTLy9SrQvGjmSoTxD-21574" target="BPcT3s-d_LDSYnCtPken-7">
          <mxGeometry relative="1" as="geometry" />
        </mxCell>
        <mxCell id="LAsCTLy9SrQvGjmSoTxD-21574" value="" style="shape=image;html=1;verticalAlign=top;verticalLabelPosition=bottom;labelBackgroundColor=#ffffff;imageAspect=0;aspect=fixed;image=https://cdn3.iconfinder.com/data/icons/energy-and-power-glyph-24-px/24/Automotive_battery_battery_charging_car_battery_truck_battery_vehicle_battery_3-128.png;direction=east;points=[[0,0,0,0,0],[0,0.25,0,0,0],[0,0.5,0,0,0],[0,0.75,0,0,0],[0,1,0,0,0],[0.25,1,0,0,0],[0.29,0.11,0,0,0],[0.5,0,0,0,0],[0.5,1,0,0,0],[0.71,0.11,0,0,0],[0.75,1,0,0,0],[1,0,0,0,0],[1,0.25,0,0,0],[1,0.5,0,0,0],[1,0.75,0,0,0],[1,1,0,0,0]];" parent="1" vertex="1">
          <mxGeometry x="370" y="424" width="100" height="100" as="geometry" />
        </mxCell>
        <mxCell id="LAsCTLy9SrQvGjmSoTxD-21571" value="&amp;nbsp; &amp;nbsp; &amp;nbsp; &amp;nbsp;Solar Panel" style="shape=image;html=1;verticalAlign=top;verticalLabelPosition=bottom;labelBackgroundColor=#ffffff;imageAspect=0;aspect=fixed;image=https://cdn2.iconfinder.com/data/icons/business-and-education-1/512/133_Solar_Panel_Energy_technology_smart_city_technology_smart-128.png;clipPath=inset(3.13% 3.91% 31.25% 3.91%);points=[[0,0,0,0,0],[0,0.25,0,0,0],[0,0.5,0,0,0],[0,0.75,0,0,0],[0,1,0,0,0],[0.25,0,0,0,0],[0.25,1,0,0,0],[0.5,0,0,0,0],[0.5,1,0,0,0],[0.75,0,0,0,0],[0.75,1,0,0,0],[0.94,1,0,0,0],[1,0,0,0,0],[1,0.25,0,0,0],[1,0.5,0,0,0],[1,0.75,0,0,0]];align=left;" parent="1" vertex="1">
          <mxGeometry x="60" y="290" width="126.43" height="90" as="geometry" />
        </mxCell>
        <mxCell id="LAsCTLy9SrQvGjmSoTxD-21576" style="edgeStyle=orthogonalEdgeStyle;rounded=0;orthogonalLoop=1;jettySize=auto;html=1;exitX=1;exitY=0.75;exitDx=0;exitDy=0;entryX=0.29;entryY=0.11;entryDx=0;entryDy=0;entryPerimeter=0;" parent="1" source="LAsCTLy9SrQvGjmSoTxD-21566" target="LAsCTLy9SrQvGjmSoTxD-21574" edge="1">
          <mxGeometry relative="1" as="geometry">
            <mxPoint x="380" y="420" as="targetPoint" />
            <Array as="points">
              <mxPoint x="399" y="409" />
            </Array>
          </mxGeometry>
        </mxCell>
        <mxCell id="LAsCTLy9SrQvGjmSoTxD-21583" style="edgeStyle=orthogonalEdgeStyle;rounded=0;orthogonalLoop=1;jettySize=auto;html=1;exitX=0;exitY=0.75;exitDx=0;exitDy=0;startArrow=classic;startFill=1;endArrow=none;endFill=0;" parent="1" source="LAsCTLy9SrQvGjmSoTxD-21581" edge="1">
          <mxGeometry relative="1" as="geometry">
            <mxPoint x="400" y="409" as="targetPoint" />
            <Array as="points">
              <mxPoint x="445" y="409" />
            </Array>
          </mxGeometry>
        </mxCell>
        <mxCell id="LAsCTLy9SrQvGjmSoTxD-21586" style="rounded=0;orthogonalLoop=1;jettySize=auto;html=1;exitX=1;exitY=0.25;exitDx=0;exitDy=0;entryX=0;entryY=0.25;entryDx=0;entryDy=0;startArrow=none;startFill=0;endArrow=classic;endFill=1;" parent="1" source="LAsCTLy9SrQvGjmSoTxD-21581" target="LAsCTLy9SrQvGjmSoTxD-21584" edge="1">
          <mxGeometry relative="1" as="geometry" />
        </mxCell>
        <mxCell id="LAsCTLy9SrQvGjmSoTxD-21587" style="edgeStyle=none;rounded=0;orthogonalLoop=1;jettySize=auto;html=1;exitX=1;exitY=0.75;exitDx=0;exitDy=0;entryX=0;entryY=0.75;entryDx=0;entryDy=0;startArrow=none;startFill=0;endArrow=classic;endFill=1;" parent="1" source="LAsCTLy9SrQvGjmSoTxD-21581" target="LAsCTLy9SrQvGjmSoTxD-21584" edge="1">
          <mxGeometry relative="1" as="geometry" />
        </mxCell>
        <mxCell id="BPcT3s-d_LDSYnCtPken-12" style="edgeStyle=orthogonalEdgeStyle;rounded=0;orthogonalLoop=1;jettySize=auto;html=1;exitX=0;exitY=0.25;exitDx=0;exitDy=0;entryX=1;entryY=0.25;entryDx=0;entryDy=0;endArrow=none;endFill=0;startArrow=classic;startFill=1;" edge="1" parent="1" source="LAsCTLy9SrQvGjmSoTxD-21581" target="LAsCTLy9SrQvGjmSoTxD-21566">
          <mxGeometry relative="1" as="geometry" />
        </mxCell>
        <mxCell id="LAsCTLy9SrQvGjmSoTxD-21581" value="Voltage Booster" style="rounded=0;whiteSpace=wrap;html=1;" parent="1" vertex="1">
          <mxGeometry x="490" y="364" width="120" height="60" as="geometry" />
        </mxCell>
        <mxCell id="LAsCTLy9SrQvGjmSoTxD-21584" value="&lt;b&gt;&lt;font style=&quot;font-size: 14px;&quot;&gt;CDHS&lt;/font&gt;&lt;/b&gt;" style="rounded=0;whiteSpace=wrap;html=1;" parent="1" vertex="1">
          <mxGeometry x="680" y="364" width="120" height="60" as="geometry" />
        </mxCell>
        <mxCell id="LAsCTLy9SrQvGjmSoTxD-21588" style="edgeStyle=none;rounded=0;orthogonalLoop=1;jettySize=auto;html=1;exitX=0;exitY=0.25;exitDx=0;exitDy=0;startArrow=classic;startFill=1;endArrow=none;endFill=0;" parent="1" source="LAsCTLy9SrQvGjmSoTxD-21585" edge="1">
          <mxGeometry relative="1" as="geometry">
            <mxPoint x="630" y="380" as="targetPoint" />
            <Array as="points">
              <mxPoint x="630" y="275" />
              <mxPoint x="630" y="330" />
            </Array>
          </mxGeometry>
        </mxCell>
        <mxCell id="LAsCTLy9SrQvGjmSoTxD-21585" value="&lt;b&gt;&lt;font style=&quot;font-size: 14px;&quot;&gt;NDS&lt;/font&gt;&lt;/b&gt;" style="rounded=0;whiteSpace=wrap;html=1;" parent="1" vertex="1">
          <mxGeometry x="680" y="260" width="120" height="60" as="geometry" />
        </mxCell>
        <mxCell id="LAsCTLy9SrQvGjmSoTxD-21589" style="edgeStyle=none;rounded=0;orthogonalLoop=1;jettySize=auto;html=1;exitX=0;exitY=0.75;exitDx=0;exitDy=0;startArrow=classic;startFill=1;endArrow=none;endFill=0;" parent="1" source="LAsCTLy9SrQvGjmSoTxD-21585" edge="1">
          <mxGeometry relative="1" as="geometry">
            <mxPoint x="660" y="410" as="targetPoint" />
            <mxPoint x="680" y="300" as="sourcePoint" />
            <Array as="points">
              <mxPoint x="660" y="305" />
            </Array>
          </mxGeometry>
        </mxCell>
        <mxCell id="BPcT3s-d_LDSYnCtPken-18" style="edgeStyle=orthogonalEdgeStyle;rounded=0;orthogonalLoop=1;jettySize=auto;html=1;exitX=1;exitY=0.5;exitDx=0;exitDy=0;exitPerimeter=0;entryX=0.013;entryY=0.414;entryDx=0;entryDy=0;entryPerimeter=0;startArrow=none;startFill=0;endArrow=classic;endFill=1;" edge="1" parent="1">
          <mxGeometry relative="1" as="geometry">
            <mxPoint x="218" y="389" as="sourcePoint" />
            <mxPoint x="229.56000000000006" y="388.8399999999999" as="targetPoint" />
          </mxGeometry>
        </mxCell>
        <mxCell id="BPcT3s-d_LDSYnCtPken-19" style="edgeStyle=none;rounded=0;orthogonalLoop=1;jettySize=auto;html=1;exitX=0;exitY=0.5;exitDx=0;exitDy=0;exitPerimeter=0;entryX=0.94;entryY=1;entryDx=0;entryDy=0;entryPerimeter=0;startArrow=none;startFill=0;endArrow=none;endFill=0;" edge="1" parent="1" source="BPcT3s-d_LDSYnCtPken-1" target="LAsCTLy9SrQvGjmSoTxD-21571">
          <mxGeometry relative="1" as="geometry" />
        </mxCell>
        <mxCell id="BPcT3s-d_LDSYnCtPken-1" value="" style="pointerEvents=1;verticalLabelPosition=bottom;shadow=0;dashed=0;align=center;html=1;verticalAlign=top;shape=mxgraph.electrical.miscellaneous.fuse_2;" vertex="1" parent="1">
          <mxGeometry x="179" y="385" width="40" height="8" as="geometry" />
        </mxCell>
        <mxCell id="BPcT3s-d_LDSYnCtPken-7" value="" style="pointerEvents=1;verticalLabelPosition=bottom;shadow=0;dashed=0;align=center;html=1;verticalAlign=top;shape=mxgraph.electrical.miscellaneous.fuse_2;direction=south;" vertex="1" parent="1">
          <mxGeometry x="437" y="379" width="8" height="40" as="geometry" />
        </mxCell>
        <mxCell id="BPcT3s-d_LDSYnCtPken-20" value="" style="pointerEvents=1;verticalLabelPosition=bottom;shadow=0;dashed=0;align=center;html=1;verticalAlign=top;shape=mxgraph.electrical.electro-mechanical.dpst2;elSwitchState=off;" vertex="1" parent="1">
          <mxGeometry x="410" y="290" width="90" height="56" as="geometry" />
        </mxCell>
      </root>
    </mxGraphModel>
  </diagram>
</mxfile>
